# xmcd CD database file
#
# Track frame offsets:
#	150
#	14208
#	33612
#	50924
#	67952
#	81496
#	92335
#	116693
#	133654
#	147894
#	162148
#	185097
#	204835
#	217531
#	228948
#	239687
#	253186
#	266852
#	283135
#	296074
#	315269
#	330163
#	343372
#
# Disc length: 4756 seconds
#
# Revision: 0
# Processed by: cddbd v1.5.2PL0 Copyright (c) Steve Scherf et al.
# Submitted via: CDex 1.51
#
DISCID=63129217
DTITLE=Muddy Waters - Fundamental Blues 4
DYEAR=2008
DGENRE=Blues
TTITLE0=Rollin' Stone
TTITLE1=Soon Forgotten [Live]
TTITLE2=Where's My Woman Been [Live]
TTITLE3=Blow Mind Blow [Live]
TTITLE4=Got My Mijo Working [Live]
TTITLE5=I Feel So Good
TTITLE6=Howlin' Wolf [Live]
TTITLE7=Mean Ol' Frisco
TTITLE8=Screamin' and Cryin' [Live]
TTITLE9=Long Distance Call [Live]
TTITLE10=Floyd's Guitar Blues [Live]
TTITLE11=Garbage Man [Live]
TTITLE12=Baby Please Don't Go [Live]
TTITLE13=Going' Home [Live]
TTITLE14=Standin' Around Cryin'
TTITLE15=I'm Ready [Live]
TTITLE16=Hoochie Coochie Man [Live]
TTITLE17=Corriene, Corrina [Live]
TTITLE18=Forty Days And Forty Nights [Live]
TTITLE19=Caldonia [Live]
TTITLE20=Rock Me
TTITLE21=She Moves Me
TTITLE22=Rollin' And Thumblin'
EXTD=YEAR: 2008
EXTT0=
EXTT1=
EXTT2=
EXTT3=
EXTT4=
EXTT5=
EXTT6=
EXTT7=
EXTT8=
EXTT9=
EXTT10=
EXTT11=
EXTT12=
EXTT13=
EXTT14=
EXTT15=
EXTT16=
EXTT17=
EXTT18=
EXTT19=
EXTT20=
EXTT21=
EXTT22=
PLAYORDER=
